# AST/ASF file generated using VICON BodyLanguage
# -----------------------------------------------
:version 1.10
:name VICON
:units
  mass 1.0
  length 0.45
  angle deg
:documentation
   .ast/.asf automatically generated from VICON data using
   VICON BodyBuilder and BodyLanguage model FoxedUp or BRILLIANT.MOD
:root
   order TX TY TZ RX RY RZ
   axis XYZ
   position 0 0 0  
   orientation 0 0 0 
:bonedata
  begin
     id 1 
     name lhipjoint
     direction 0.64773 -0.699417 0.302095 
     length 2.48597 
     axis 0 0 0  XYZ
  end
  begin
     id 2 
     name lfemur
     direction 0.34202 -0.939693 0  
     length 6.71947  
     axis 0 0 20  XYZ
    dof rx ry rz
    limits (-160.0 20.0)
           (-70.0 70.0)
           (-60.0 70.0)
  end
  begin
     id 3 
     name ltibia
     direction 0.34202 -0.939693 0   
     length 8.08777   
     axis 0 0 20   XYZ
    dof rx
    limits (-10.0 170.0)
  end
  begin
     id 4 
     name lfoot
     direction 0.0808503 -0.222134 0.971658   
     length 2.08264   
     axis -90 7.62852e-016 20   XYZ
    dof rx rz
    limits (-45.0 90.0)
           (-70.0 20.0)
  end
  begin
     id 5 
     name ltoes
     direction 1.53502e-011 -4.22007e-011 1   
     length 1.04662   
     axis -90 7.62852e-016 20   XYZ
    dof rx
    limits (-90.0 20.0)
  end
  begin
     id 6 
     name rhipjoint
     direction -0.610924 -0.726792 0.313919   
     length 2.39233  
     axis 0 0 0  XYZ 
  end
  begin
     id 7 
     name rfemur
     direction -0.34202 -0.939693 0   
     length 6.96955   
     axis 0 0 -20   XYZ
    dof rx ry rz
    limits (-160.0 20.0)
           (-70.0 70.0)
           (-70.0 60.0)
  end
  begin
     id 8 
     name rtibia
     direction -0.34202 -0.939693 0   
     length 8.19584   
     axis 0 0 -20   XYZ
    dof rx
    limits (-10.0 170.0)
 end
 begin
     id 9 
     name rfoot
     direction -0.077777 -0.213691 0.9738   
     length 2.07539  
     axis -90 -7.62852e-016 -20   XYZ
    dof rx rz
    limits (-45.0 90.0)
           (-20.0 70.0)
  end
  begin
     id 10 
     name rtoes
     direction -1.53558e-011 -4.22006e-011 1   
     length 1.04381   
     axis -90 -7.62852e-016 -20   XYZ
    dof rx
    limits (-90.0 20.0)
  end
  begin
     id 11 
     name lowerback
     direction -0.00971646 0.996074 0.0879841   
     length 1.67643   
     axis 0 0 0   XYZ
    dof rx ry rz
    limits (-20.0 45.0)
           (-30.0 30.0)
           (-30.0 30.0)
  end
  begin
     id 12 
     name upperback
     direction 0.0127391 0.991676 0.128127   
     length 1.63741   
     axis 0 0 0   XYZ
    dof rx ry rz
    limits (-20.0 45.0)
           (-30.0 30.0)
           (-30.0 30.0)
  end
  begin
     id 13 
     name thorax
     direction 0.0167583 0.996049 0.0872067   
     length 1.65931   
     axis 0 0 0   XYZ
    dof rx ry rz
    limits (-20.0 45.0)
           (-30.0 30.0)
           (-30.0 30.0)
  end
  begin
     id 14 
     name lowerneck
     direction -0.0317829 0.998312 0.0486079   
     length 1.79021   
     axis 0 0 0   XYZ
    dof rx ry rz
    limits (-20.0 45.0)
           (-30.0 30.0)
           (-30.0 30.0)
  end
  begin
     id 15 
     name upperneck
     direction 0.0896851 0.972452 -0.215159   
     length 1.78797   
     axis 0 0 0   XYZ
    dof rx ry rz
    limits (-20.0 45.0)
           (-30.0 30.0)
           (-30.0 30.0)
  end
  begin
     id 16
     name head
     direction 0.0310949 0.996503 -0.0775582  
     length 1.81549  
     axis 0 0 0   XYZ
    dof rx ry rz
    limits (-20.0 45.0)
           (-30.0 30.0)
           (-30.0 30.0)
  end
  begin
     id 17 
     name lclavicle
     direction 0.853638 0.502051 -0.138733  
     length 3.31627  
     axis 0 0 0   XYZ
    dof ry rz
    limits (-20.0 10.0)
           (0.0 20.0)
  end
  begin
     id 18 
     name lhumerus
     direction 1 -4.48962e-011 -1.41788e-018   
     length 5.54893   
     axis 180 -30 -90   XYZ
    dof rx ry rz
    limits (-60.0 90.0)
           (-90.0 90.0)
           (-90.0 90.0)
  end
  begin
     id 19
     name lradius
     direction 1 -4.48962e-011 -4.95754e-027   
     length 3.02898   
     axis 180 -30 -90   XYZ
    dof rx
    limits (-10.0 170.0)
  end
  begin
     id 20
     name lwrist
     direction 1 -4.48952e-011 -1.03764e-026   
     length 1.51449   
     axis 9.09556e-015 90 90   XYZ
    dof ry
    limits (-180.0 0.0)
 end
  begin
     id 21 
     name lhand
     direction 1 -4.4902e-011 -2.07528e-026   
     length 0.640951   
     axis 1.3242e-014 90 90   XYZ
    dof rx rz
    limits (-90.0 90.0)
           (-45.0 45.0)
  end
  begin
     id 22 
     name lfingers
     direction 1 -4.49014e-011 -4.15056e-026   
     length 0.516751   
     axis 2.64841e-014 90 90   XYZ
    dof rx
    limits (0.0 90.0)
  end
  begin
     id 23
     name lthumb
     direction 0.707107 -6.35008e-011 0.707107   
     length 0.741954   
     axis -90 45 2.85299e-015   XYZ
    dof rx rz
    limits (-45.0 45.0)
           (-45.0 45.0)
  end
  begin
     id 24 
     name rclavicle
     direction -0.888531 0.455324 -0.0565039   
     length 3.20126  
     axis 0 0 0   XYZ 
    dof ry rz
    limits (-10.0 20.0)
           (-20.0 0.0)
  end
  begin
     id 25 
     name rhumerus
     direction -1 -4.48946e-011 -8.98298e-028  
     length 5.3519   
     axis 180 30 90   XYZ
    dof rx ry rz
    limits (-90.0 60.0)
           (-90.0 90.0)
           (-90.0 90.0)
  end
  begin
     id 26 
     name rradius
     direction -1 -4.4899e-011 -3.18779e-027   
     length 3.02531   
     axis 180 30 90   XYZ
    dof rx
    limits (-10.0 170.0)
  end
  begin
     id 27 
     name rwrist
     direction -1 -4.4897e-011 -1.03764e-026   
     length 1.51266   
     axis 9.09556e-015 -90 -90   XYZ
    dof ry
    limits (-180.0 0.0)
  end
  begin
     id 28
     name rhand
     direction -1 -4.48941e-011 -2.07528e-026   
     length 0.78389   
     axis 1.3242e-014 -90 -90   XYZ
    dof rx rz
    limits (-90.0 90.0)
           (-45.0 45.0)
  end
  begin
     id 29
     name rfingers
     direction -1 -4.49012e-011 -4.15056e-026   
     length 0.631992   
     axis 2.64841e-014 -90 -90   XYZ
    dof rx
    limits (0.0 90.0)
  end
  begin
     id 30
     name rthumb
     direction -0.707107 -6.3496e-011 0.707107   
     length 0.907418   
     axis -90 -45 -2.85299e-015   XYZ
    dof rx rz
    limits (-45.0 45.0)
           (-45.0 45.0)
  end
:hierarchy
  begin
    root lhipjoint rhipjoint lowerback
    lhipjoint lfemur
    lfemur ltibia
    ltibia lfoot
    lfoot ltoes
    rhipjoint rfemur
    rfemur rtibia
    rtibia rfoot
    rfoot rtoes
    lowerback upperback
    upperback thorax
    thorax lowerneck lclavicle rclavicle
    lowerneck upperneck
    upperneck head
    lclavicle lhumerus
    lhumerus lradius
    lradius lwrist
    lwrist lhand lthumb
    lhand lfingers
    rclavicle rhumerus
    rhumerus rradius
    rradius rwrist
    rwrist rhand rthumb
    rhand rfingers
  end

#!OML:ASF E:\Style3\Style3.ASF
:FULLY-SPECIFIED
:DEGREES
1372
root 0.480728 17.8098 0.190226 19.1563 80.9099 -1.46313
lowerback -6.252 -1.89589 3.7921
upperback -12.6974 -0.960891 9.25592
thorax -10.1064 0.127292 7.94319
lowerneck -12.1728 6.75901 3.58805
upperneck 21.616 8.76289 0.408761
head 8.91199 4.54706 0.550185
rclavicle 4.77083e-015 3.18055e-014
rhumerus -15.7553 -16.9317 -757.031
rradius 36.6846
rwrist -9.51502
rhand 1.33079 7.67416
rfingers 7.12502
rthumb 26.8644 -20.4372
lclavicle 4.77083e-015 3.18055e-014
lhumerus 58.9354 79.2915 761.722
lradius 15.6164
lwrist -81.9005
lhand 7.99752 14.4161
lfingers 7.12502
lthumb 33.2247 41.3687
rfemur -22.0545 14.4898 11.7358
rtibia 15.9053
rfoot -13.5037 -16.8926
rtoes -22.5114
lfemur -10.1842 -0.36713 -19.2202
ltibia -4.13472e-014
lfoot -9.4891 11.228
ltoes -12.6758
1373
root 0.47729 17.8109 0.184046 19.3998 80.1394 -1.28636
lowerback -6.18165 -1.891 3.67137
upperback -12.6888 -0.955366 9.30622
thorax -10.1359 0.141656 8.07287
lowerneck -12.1256 6.91651 3.58763
upperneck 21.7143 8.93398 0.63448
head 8.92888 4.65147 0.645927
rclavicle 5.1684e-015 6.36111e-015
rhumerus -16.7271 -18.7347 -757.627
rradius 35.2704
rwrist -7.73982
rhand 1.18594 8.08701
rfingers 7.12502
rthumb 26.7258 -20.0455
lclavicle 5.1684e-015 6.36111e-015
lhumerus 62.0417 79.1049 763.898
lradius 15.7977
lwrist -81.1644
lhand 7.41762 14.7496
lfingers 7.12502
lthumb 32.6731 41.8182
rfemur -22.3964 14.7244 11.4831
rtibia 16.0467
rfoot -13.4355 -16.5362
rtoes -22.4564
lfemur -10.1497 0.250821 -19.4871
ltibia 1.59028e-014
lfoot -9.81798 11.2553
ltoes -11.6324
1374
root 0.47102 17.8104 0.175973 19.5762 79.4869 -1.18029
lowerback -6.0885 -1.91902 3.59693
upperback -12.705 -0.985706 9.36954
thorax -10.2054 0.136993 8.19487
lowerneck -12.087 7.06765 3.5461
upperneck 21.854 9.11484 0.826453
head 8.96078 4.75421 0.739643
rclavicle -3.29983e-014 3.81667e-014
rhumerus -17.8029 -20.2377 -758.02
rradius 33.9131
rwrist -6.69192
rhand 0.89471 8.48805
rfingers 7.12502
rthumb 26.4471 -19.6868
lclavicle -3.29983e-014 3.81667e-014
lhumerus 67.9249 79.0099 769.086
lradius 16.0668
lwrist -81.5516
lhand 6.81079 15.1772
lfingers 7.12502
lthumb 32.0956 42.3639
rfemur -22.7355 14.9974 11.2367
rtibia 16.1617
rfoot -13.3717 -16.2645
rtoes -22.4585
lfemur -10.1526 0.759512 -19.7021
ltibia 3.65764e-014
lfoot -10.2284 11.2151
ltoes -9.76678
1375
root 0.465556 17.8085 0.169013 19.1734 78.8664 -1.74225
lowerback -6.02004 -1.94004 3.66422
upperback -12.7828 -0.992533 9.44301
thorax -10.3407 0.136893 8.25143
lowerneck -12.0981 7.17344 3.51972
upperneck 22.1642 9.2405 0.996182
head 9.06161 4.83114 0.824703
rclavicle 2.10712e-014 -6.04305e-014
rhumerus -19.0239 -21.9779 -758.263
rradius 32.5894
rwrist -5.61093
rhand 0.640382 8.73842
rfingers 7.12502
rthumb 26.2036 -19.4728
lclavicle 2.10712e-014 -6.04305e-014
lhumerus 74.2675 78.6914 774.738
lradius 16.248
lwrist -82.4007
lhand 6.56886 15.564
lfingers 7.12502
lthumb 31.8652 42.7969
rfemur -23.1654 15.3016 11.1005
rtibia 16.2598
rfoot -13.2666 -16.0448
rtoes -22.7827
lfemur -10.2437 1.28107 -19.7835
ltibia -1.27222e-014
lfoot -10.6006 11.2152
ltoes -8.19793
1376
root 0.461887 17.8056 0.16103 18.9713 78.1688 -2.10761
lowerback -6.02199 -1.97357 3.71438
upperback -12.8362 -1.03105 9.49917
thorax -10.4006 0.117576 8.29332
lowerneck -11.9678 7.26863 3.6074
upperneck 22.3391 9.35914 1.03486
head 9.10264 4.90074 0.837585
rclavicle -6.48038e-014 6.36111e-015
rhumerus -20.2551 -24.4126 -758.338
rradius 31.1737
rwrist -3.90857
rhand 0.563041 9.12141
rfingers 7.12502
rthumb 26.1296 -19.1007
lclavicle -6.48038e-014 6.36111e-015
lhumerus 77.5685 78.2846 777.185
lradius 16.3475
lwrist -82.9427
lhand 7.07925 15.6695
lfingers 7.12502
lthumb 32.3511 42.8044
rfemur -23.5965 15.5378 10.9354
rtibia 16.3509
rfoot -13.1408 -15.6947
rtoes -23.1948
lfemur -10.3231 1.86526 -19.9229
ltibia -4.29375e-014
lfoot -10.9074 11.2076
ltoes -7.17417
1377
root 0.457221 17.8066 0.156194 19.2911 77.4581 -1.82894
lowerback -5.88834 -2.06951 3.56107
upperback -12.8552 -1.15734 9.55237
thorax -10.4819 0.0701631 8.4542
lowerneck -11.8661 7.39999 3.6957
upperneck 22.4773 9.53055 1.04666
head 9.13857 4.99114 0.847722
rclavicle -1.19271e-015 -2.8625e-014
rhumerus -21.5075 -27.1531 -758.219
rradius 29.7813
rwrist -2.04993
rhand 0.265768 9.32654
rfingers 7.12502
rthumb 25.8449 -18.9374
lclavicle -1.19271e-015 -2.8625e-014
lhumerus 83.7041 77.9578 782.529
lradius 16.3584
lwrist -84.6384
lhand 7.75376 15.3329
lfingers 7.12502
lthumb 32.9929 42.3347
rfemur -23.8415 15.7706 10.6841
rtibia 16.3675
rfoot -13.0261 -15.3577
rtoes -23.51
lfemur -10.3024 2.4169 -20.1925
ltibia 7.95139e-015
lfoot -10.891 11.2184
ltoes -7.06834
1378
root 0.454117 17.8058 0.153264 19.4005 76.7814 -1.71092
lowerback -5.77253 -2.17216 3.43614
upperback -12.8235 -1.30251 9.61303
thorax -10.4902 0.00720195 8.60264
lowerneck -11.9422 7.53274 3.69653
upperneck 22.6995 9.70353 1.11058
head 9.2289 5.07852 0.899785
rclavicle 1.74931e-014 3.18055e-015
rhumerus -22.9316 -29.8294 -757.811
rradius 28.5165
rwrist -0.381577
rhand -0.199198 9.57504
rfingers 7.12502
rthumb 25.3996 -18.753
lclavicle 1.74931e-014 3.18055e-015
lhumerus 91.1612 77.4368 789.345
lradius 16.4882
lwrist -86.6769
lhand 7.77561 15.2286
lfingers 7.12502
lthumb 33.0137 42.226
rfemur -24.0141 15.9519 10.5047
rtibia 16.3671
rfoot -12.8471 -15.0144
rtoes -23.8983
lfemur -10.2166 2.94746 -20.4193
ltibia 2.06736e-014
lfoot -10.9539 11.2408
ltoes -7.02821
1379
root 0.461059 17.8066 0.149542 18.699 76.0604 -2.53563
lowerback -5.93254 -2.20611 3.56621
upperback -12.7654 -1.36979 9.70088
thorax -10.323 -0.0416076 8.61663
lowerneck -11.981 7.64015 3.68384
upperneck 22.7842 9.84376 1.15712
head 9.26416 5.14683 0.93833
rclavicle -6.36111e-015 3.81667e-014
rhumerus -24.5691 -32.4067 -757.114
rradius 27.2496
rwrist 1.0909
rhand -0.749631 10.1447
rfingers 7.12502
rthumb 24.8722 -18.2573
lclavicle -6.36111e-015 3.81667e-014
lhumerus 94.1055 76.8228 791.688
lradius 16.7229
lwrist -87.5479
lhand 7.69859 15.4316
lfingers 7.12502
lthumb 32.9404 42.4444
rfemur -24.2769 16.1963 10.5106
rtibia 16.3539
rfoot -12.6507 -14.6497
rtoes -24.3168
lfemur -10.173 3.6009 -20.4383
ltibia 3.18055e-014
lfoot -11.1693 11.2005
ltoes -6.80396
1380
root 0.470069 17.8075 0.146618 18.1271 75.3326 -3.20265
lowerback -6.08566 -2.24003 3.67307
upperback -12.7109 -1.43971 9.76767
thorax -10.1631 -0.0910963 8.62015
lowerneck -12.0488 7.7352 3.6883
upperneck 22.8971 9.95221 1.24593
head 9.31293 5.20594 0.98698
rclavicle 1.55052e-014 -9.54166e-014
rhumerus -26.4627 -34.9732 -756.085
rradius 26.0015
rwrist 2.76521
rhand -1.54873 10.592
rfingers 7.12502
rthumb 24.1062 -17.9136
lclavicle 1.55052e-014 -9.54166e-014
lhumerus 97.5167 76.0726 794.651
lradius 16.9683
lwrist -88.4612
lhand 7.86886 15.3342
lfingers 7.12502
lthumb 33.1023 42.3128
rfemur -24.4782 16.3628 10.5287
rtibia 16.3206
rfoot -12.6297 -14.1519
rtoes -24.3134
lfemur -10.089 4.2526 -20.4806
ltibia -3.65764e-014
lfoot -11.4165 11.1562
ltoes -7.15129
1381
root 0.470904 17.8071 0.144948 17.9953 74.6146 -3.399
lowerback -6.08123 -2.34533 3.61237
upperback -12.6863 -1.59297 9.84516
thorax -10.1141 -0.163714 8.74487
lowerneck -11.9846 7.87624 3.77111
upperneck 22.9177 10.1381 1.22352
head 9.31687 5.29675 0.986472
rclavicle 2.42517e-014 3.81667e-014
rhumerus -28.4843 -37.5647 -754.693
rradius 24.6982
rwrist 4.88894
rhand -2.24914 10.9694
rfingers 7.12502
rthumb 23.4344 -17.6236
lclavicle 2.42517e-014 3.81667e-014
lhumerus 100.184 75.4382 796.825
lradius 17.2297
lwrist -88.9797
lhand 8.00534 15.2287
lfingers 7.12502
lthumb 33.2321 42.1797
rfemur -24.6776 16.4885 10.4527
rtibia 16.2599
rfoot -12.5693 -13.6611
rtoes -24.3569
lfemur -10.0295 4.85727 -20.6245
ltibia 1.74931e-014
lfoot -11.5726 11.1141
ltoes -7.04484
1382
root 0.466061 17.8062 0.143914 18.1941 73.913 -3.31765
lowerback -6.03524 -2.459 3.49624
upperback -12.7147 -1.75199 9.8756
thorax -10.1481 -0.234235 8.85506
lowerneck -11.927 8.00514 3.78352
upperneck 22.9292 10.3097 1.25098
head 9.31159 5.3805 1.01169
rclavicle -5.48646e-014 6.04305e-014
rhumerus -30.9236 -40.2803 -752.718
rradius 23.4219
rwrist 7.60311
rhand -2.81807 11.5542
rfingers 7.12502
rthumb 22.8886 -17.1074
lclavicle -5.48646e-014 6.04305e-014
lhumerus 101.911 74.8278 797.944
lradius 17.3666
lwrist -88.9326
lhand 8.08704 15.1406
lfingers 7.12502
lthumb 33.3098 42.0749
rfemur -25.0026 16.6723 10.2459
rtibia 16.2383
rfoot -12.6063 -13.193
rtoes -23.891
lfemur -10.0849 5.42064 -20.8351
ltibia -4.77083e-015
lfoot -11.6409 11.1187
ltoes -7.20615
1383
root 0.462607 17.8064 0.143814 18.2309 73.2065 -3.38269
lowerback -5.98795 -2.54148 3.43878
upperback -12.7409 -1.87118 9.87167
thorax -10.1874 -0.292845 8.89141
lowerneck -12.0659 8.10326 3.74624
upperneck 23.1743 10.4184 1.40452
head 9.41334 5.4432 1.09695
rclavicle 6.40087e-014 -6.04305e-014
rhumerus -33.7484 -42.7308 -750.31
rradius 22.2618
rwrist 10.0898
rhand -3.56778 12.0126
rfingers 7.12502
rthumb 22.169 -16.7363
lclavicle 6.40087e-014 -6.04305e-014
lhumerus 101.828 74.2798 797.169
lradius 17.4074
lwrist -88.0915
lhand 8.27148 14.9982
lfingers 7.12502
lthumb 33.4851 41.8948
rfemur -25.3074 16.9445 10.0656
rtibia 16.1925
rfoot -12.543 -12.8144
rtoes -23.4928
lfemur -10.1179 6.00226 -21.0048
ltibia 3.18055e-015
lfoot -11.7481 11.103
ltoes -7.04405
